Coordinates
version=1
nRows=14
nColumns=24
inDegrees=yes

Units are S.I. units (second, meters, Newtons, ...)
If the header above contains a line with 'inDegrees', this indicates whether rotational values are in degrees (yes) or radians (no).

endheader
time	pelvis_tilt	pelvis_list	pelvis_rotation	pelvis_tx	pelvis_ty	pelvis_tz	hip_flexion_r	hip_adduction_r	hip_rotation_r	knee_angle_r	ankle_angle_r	subtalar_angle_r	mtp_angle_r	hip_flexion_l	hip_adduction_l	hip_rotation_l	knee_angle_l	ankle_angle_l	subtalar_angle_l	mtp_angle_l	lumbar_extension	lumbar_bending	lumbar_rotation
      6.58500000	      9.06806695	      1.95805354	   -180.10295860	      0.25853137	      0.74674072	     -1.21732803	     42.43064931	    -20.21744287	    -21.28956910	    -63.17478179	     23.42111916	      8.11910248	      0.00000000	     43.73420085	    -25.95483557	    -17.80916236	    -62.55783817	     23.22637532	     13.97226093	      0.00000000	     -5.08800782	      1.48500712	      3.32846492
      6.59000000	      9.15095754	      2.02070126	   -180.08469983	      0.25930869	      0.74362452	     -1.21734888	     42.98665293	    -20.34728547	    -21.18941301	    -64.00164205	     23.79920322	      8.14107611	      0.00000000	     44.39592882	    -26.18619589	    -17.56212503	    -63.45886652	     23.52079272	     14.06603399	      0.00000000	     -5.12042541	      1.53772935	      3.34140858
      6.59500000	      9.15823612	      2.03392699	   -180.06342559	      0.26010874	      0.74052834	     -1.21740479	     43.48856586	    -20.53425434	    -21.07822638	    -64.86426561	     24.24006834	      8.13779861	      0.00000000	     44.94205431	    -26.37612265	    -17.36193836	    -64.28577141	     23.88459152	     14.17454082	      0.00000000	     -5.24887103	      1.53144071	      3.32737071
      6.60000000	      9.24365518	      2.07508733	   -180.07156648	      0.26092827	      0.73732677	     -1.21743758	     44.07437261	    -20.65298157	    -20.92051518	    -65.69952776	     24.61172987	      8.10136096	      0.00000000	     45.57909602	    -26.58364116	    -17.12638940	    -65.11703822	     24.26256820	     14.27698100	      0.00000000	     -5.28146859	      1.56186289	      3.35628215
      6.60500000	      9.27185352	      2.08711088	   -180.06152936	      0.26172958	      0.73416958	     -1.21751849	     44.59289812	    -20.82169780	    -20.79170435	    -66.53807206	     24.96143941	      8.10617426	      0.00000000	     46.14499865	    -26.76499057	    -16.91119655	    -65.94197115	     24.62884429	     14.39519107	      0.00000000	     -5.38000633	      1.55809162	      3.35900567
      6.61000000	      9.31851033	      2.09651615	   -180.03855328	      0.26251816	      0.73093359	     -1.21753140	     45.13093892	    -21.00506576	    -20.66132038	    -67.37814570	     25.32819176	      8.11612130	      0.00000000	     46.74138187	    -26.93962173	    -16.69813788	    -66.77391745	     24.98238342	     14.52906187	      0.00000000	     -5.44705708	      1.56020967	      3.36501723
      6.61500000	      9.37583140	      2.11871781	   -180.05344575	      0.26323046	      0.72769871	     -1.21749555	     45.68042565	    -21.14730480	    -20.50348427	    -68.19704210	     25.67970252	      8.12737425	      0.00000000	     47.31928701	    -27.13070985	    -16.48938007	    -67.59807538	     25.28492773	     14.44722012	      0.00000000	     -5.50350205	      1.58077358	      3.37878854
      6.62000000	      9.39461831	      2.10606966	   -180.01467289	      0.26400971	      0.72444610	     -1.21752960	     46.19217278	    -21.34583939	    -20.39723255	    -69.02829859	     26.06337783	      8.02336222	      0.00000000	     47.89087790	    -27.27284971	    -16.27227966	    -68.42171826	     25.62121300	     14.53171157	      0.00000000	     -5.62112305	      1.54848098	      3.32129839
      6.62500000	      9.40469112	      2.20760015	   -180.07032133	      0.26455392	      0.72133429	     -1.21775069	     46.65587702	    -21.38459091	    -20.28592021	    -69.82296844	     26.45427585	      8.06311097	      0.00000000	     48.42057016	    -27.59407906	    -16.06077589	    -69.22082075	     25.95554095	     14.68904357	      0.00000000	     -5.71976211	      1.59777468	      3.46317655
      6.63000000	      9.46774242	      2.13139846	   -180.02876800	      0.26530590	      0.71805165	     -1.21769529	     47.23491111	    -21.64190278	    -20.10891995	    -70.66362614	     26.78632603	      7.99104206	      0.00000000	     49.00930986	    -27.68013231	    -15.91564560	    -70.02903914	     26.49900042	     14.88263392	      0.00000000	     -5.86494161	      1.77984210	      2.74011168
      6.63500000	      9.53283798	      2.14462330	   -180.01617717	      0.26600804	      0.71476692	     -1.21775101	     47.77219370	    -21.79612239	    -19.97107105	    -71.45606732	     27.12624249	      7.99069683	      0.00000000	     49.60447060	    -27.85082668	    -15.70437011	    -70.82038342	     26.78402114	     15.01520019	      0.00000000	     -5.91743406	      1.78474610	      2.72783950
      6.64000000	      9.57213526	      2.13182263	   -180.01581849	      0.26676954	      0.71141996	     -1.21776893	     48.30189378	    -21.96296063	    -19.74112099	    -72.22979767	     27.56996453	      8.19763739	      0.00000000	     50.18739238	    -28.02966966	    -15.52131020	    -71.67318862	     27.06382095	     15.24952887	      0.00000000	     -5.98919653	      1.77292315	      2.72773885
      6.64500000	      9.60628100	      2.16844371	   -180.03682905	      0.26720553	      0.70830862	     -1.21753608	     48.78039279	    -22.10680902	    -19.67459207	    -73.01691674	     27.80854269	      8.06759094	      0.00000000	     50.69430788	    -28.22997570	    -15.37191132	    -72.42038700	     27.48245066	     15.31999186	      0.00000000	     -5.95467558	      1.25412698	      4.16759073
      6.65000000	      9.64176674	      2.13443854	   -180.06566521	      0.26804968	      0.70484167	     -1.21770546	     49.38227212	    -22.27349867	    -19.46455633	    -73.89400781	     28.15713522	      8.01666952	      0.00000000	     51.25470696	    -28.41289368	    -15.21537011	    -73.22694470	     27.83289437	     15.46021399	      0.00000000	     -6.12756738	      1.75630426	      2.86602096
